<?xml version="1.0" encoding="UTF-8"?>
<!DOCTYPE svg PUBLIC "-//W3C//DTD SVG 1.1//EN" "http://www.w3.org/Graphics/SVG/1.1/DTD/svg11.dtd">
<svg xmlns="http://www.w3.org/2000/svg" version="1.1" width="512px" height="512px" style="shape-rendering:geometricPrecision; text-rendering:geometricPrecision; image-rendering:optimizeQuality; fill-rule:evenodd; clip-rule:evenodd" xmlns:xlink="http://www.w3.org/1999/xlink">
  <defs>
    <linearGradient id="myGradient">
      <stop stop-color="#9947EB" offset="0" />
      <stop stop-color="#0DCCF2" offset="1" />
    </linearGradient>
  </defs>
  <g fill="url('#myGradient')">
    <!-- Left-down pie -->
    <path style="opacity:0.983" d="M 228.5,78.5 C 230.167,78.5 231.833,78.5 233.5,78.5C 233.011,140.225 233.511,201.892 235,263.5C 277.833,306.333 320.667,349.167 363.5,392C 316.1,433.684 261.433,448.184 199.5,435.5C 199.104,429.04 196.77,423.373 192.5,418.5C 195.749,415.085 197.916,411.085 199,406.5C 205.837,372.344 192.004,356.844 157.5,360C 196.227,331.145 208.061,293.645 193,247.5C 172.413,205.118 138.58,186.618 91.5,192C 84.3727,193.322 77.5393,195.489 71,198.5C 89.4652,146.365 124.632,110.198 176.5,90C 193.509,84.0345 210.842,80.2011 228.5,78.5 Z"/>
    <!-- Top-right pie -->
    <path style="opacity:0.987" d="M 278.5,48.5 C 336.701,51.5126 383.201,76.1793 418,122.5C 439.23,152.022 450.397,185.022 451.5,221.5C 393.833,221.5 336.167,221.5 278.5,221.5C 278.5,163.833 278.5,106.167 278.5,48.5 Z"/>
    <!-- Top-down pie -->
    <path style="opacity:0.985" d="M 281.5,251.5 C 347.25,251.007 412.916,251.507 478.5,253C 481.929,310.032 463.263,358.699 422.5,399C 420.899,399.273 419.399,399.773 418,400.5C 416.601,399.773 415.101,399.273 413.5,399C 368.667,354.167 323.833,309.333 279,264.5C 276.458,259.438 277.292,255.105 281.5,251.5 Z"/>
    <!-- Coin -->
    <path style="opacity:0.966" d="M 98.5,204.5 C 138.736,202.857 166.57,220.523 182,257.5C 192.2,297.588 180.034,328.755 145.5,351C 107.951,367.957 75.1176,361.457 47,331.5C 28.8092,306.101 25.4758,278.768 37,249.5C 50.0363,224.297 70.5363,209.297 98.5,204.5 Z M 106.5,223.5 C 109.617,223.642 112.117,224.976 114,227.5C 114.499,232.823 114.666,238.156 114.5,243.5C 121.175,243.334 127.842,243.5 134.5,244C 139.998,249.195 139.331,253.529 132.5,257C 120.833,257.333 109.167,257.667 97.5,258C 90.8572,261.881 89.8572,266.881 94.5,273C 95.8333,273.667 97.1667,274.333 98.5,275C 106.562,275.136 114.562,275.803 122.5,277C 137.94,284.699 141.773,296.199 134,311.5C 128.918,317.624 122.418,320.958 114.5,321.5C 114.666,326.844 114.499,332.177 114,337.5C 110,341.5 106,341.5 102,337.5C 100.661,332.264 100.161,326.93 100.5,321.5C 94.1579,321.666 87.8246,321.5 81.5,321C 76.7324,317.294 76.399,313.294 80.5,309C 92.7379,307.706 105.071,307.039 117.5,307C 124.428,303.883 125.928,299.05 122,292.5C 120.581,291.54 119.081,290.707 117.5,290C 110.833,289.667 104.167,289.333 97.5,289C 79.9876,283.144 74.4876,271.644 81,254.5C 85.9681,248.014 92.4681,244.348 100.5,243.5C 100.161,238.07 100.661,232.736 102,227.5C 103.397,225.93 104.897,224.596 106.5,223.5 Z"/>
    <!-- Top pile -->
    <path style="opacity:0.977" d="M 36.5,374.5 C 83.8345,374.333 131.168,374.5 178.5,375C 181.573,375.739 183.74,377.572 185,380.5C 185.667,388.833 185.667,397.167 185,405.5C 183.833,408 182,409.833 179.5,411C 131.833,411.667 84.1667,411.667 36.5,411C 34,409.833 32.1667,408 31,405.5C 30.3333,397.167 30.3333,388.833 31,380.5C 32.3597,377.977 34.193,375.977 36.5,374.5 Z"/>
    <!-- Bottom pile -->
    <path style="opacity:0.977" d="M 37.5,425.5 C 84.1679,425.333 130.835,425.5 177.5,426C 181.02,426.504 183.52,428.337 185,431.5C 185.667,439.833 185.667,448.167 185,456.5C 183.833,459 182,460.833 179.5,462C 131.5,462.667 83.5,462.667 35.5,462C 34,460.5 32.5,459 31,457.5C 30.3333,448.833 30.3333,440.167 31,431.5C 32.4936,428.686 34.6603,426.686 37.5,425.5 Z"/>
  </g>
</svg>
