<?xml version="1.0" encoding="UTF-8"?>
<!DOCTYPE svg PUBLIC "-//W3C//DTD SVG 1.1//EN" "http://www.w3.org/Graphics/SVG/1.1/DTD/svg11.dtd">
<svg xmlns="http://www.w3.org/2000/svg" version="1.1" width="512px" height="512px" style="shape-rendering:geometricPrecision; text-rendering:geometricPrecision; image-rendering:optimizeQuality; fill-rule:evenodd; clip-rule:evenodd" xmlns:xlink="http://www.w3.org/1999/xlink">
  <defs>
    <linearGradient id="myGradient">
      <stop stop-color="#7F57CE" offset="0" />
      <stop stop-color="#0BC5EA" offset="1" />
    </linearGradient>
  </defs>
  <g fill="url('#myGradient')">
    <!-- Left-down pie -->
    <path d="M 236.5,63.5 C 242.358,62.9875 248.025,63.6542 253.5,65.5C 254.584,66.6651 255.417,67.9984 256,69.5C 256.333,131.833 256.667,194.167 257,256.5C 300.333,299.833 343.667,343.167 387,386.5C 388.483,389.702 388.817,393.036 388,396.5C 341.657,441.837 286.157,460.671 221.5,453C 216.554,448.7 216.221,444.033 220.5,439C 277.031,444.598 326.698,428.932 369.5,392C 326.667,349.167 283.833,306.333 241,263.5C 240.5,202.168 240.333,140.834 240.5,79.5C 169.839,85.5499 118.339,119.883 86,182.5C 80.9537,187.824 75.9537,187.824 71,182.5C 70.5806,176.307 72.2473,170.641 76,165.5C 112.115,104.348 165.615,70.3479 236.5,63.5 Z"/>
    <!-- Top-right pie -->
    <path d="M 278.5,32.5 C 362.532,36.4257 422.698,76.0924 459,151.5C 469.916,177.414 474.916,204.414 474,232.5C 472.833,233.667 471.667,234.833 470.5,236C 405.5,236.667 340.5,236.667 275.5,236C 274.069,235.535 272.903,234.701 272,233.5C 270.344,168.891 270.011,104.224 271,39.5C 272.124,35.5379 274.624,33.2046 278.5,32.5 Z M 286.5,49.5 C 358.776,55.2962 410.943,90.6295 443,155.5C 452.098,176.226 457.265,197.893 458.5,220.5C 401.167,220.5 343.833,220.5 286.5,220.5C 286.5,163.5 286.5,106.5 286.5,49.5 Z"/>
    <!-- Top-down pie -->
    <path d="M 289.5,251.5 C 354.168,251.333 418.834,251.5 483.5,252C 484.931,252.465 486.097,253.299 487,254.5C 489.029,310.275 470.529,358.108 431.5,398C 429.541,398.931 427.541,399.764 425.5,400.5C 423.459,399.764 421.459,398.931 419.5,398C 375.333,353.833 331.167,309.667 287,265.5C 283.395,259.94 284.228,255.273 289.5,251.5 Z M 312.5,268.5 C 365.664,267.501 418.997,267.168 472.5,267.5C 469.804,310.869 453.971,348.536 425,380.5C 387.632,342.965 350.132,305.632 312.5,268.5 Z"/>
    <!-- Coins -->
    <path d="M 106.5,189.5 C 150.148,188.035 181.648,206.702 201,245.5C 215.895,286.706 207.728,322.539 176.5,353C 173.833,355 171.167,357 168.5,359C 175.167,359.333 181.833,359.667 188.5,360C 199.164,362.798 205.664,369.632 208,380.5C 208.667,388.833 208.667,397.167 208,405.5C 207.166,410.66 205,415.16 201.5,419C 205.138,422.777 207.305,427.277 208,432.5C 208.667,440.5 208.667,448.5 208,456.5C 206.116,466.717 200.282,473.55 190.5,477C 142.862,478.632 95.1948,478.965 47.5,478C 36.2996,477.315 28.4663,471.815 24,461.5C 22.4383,451.561 22.105,441.561 23,431.5C 23.9838,426.699 26.1504,422.532 29.5,419C 26.1555,415.479 23.9888,411.312 23,406.5C 22.3333,397.5 22.3333,388.5 23,379.5C 25.5,369 32,362.5 42.5,360C 49.1667,359.667 55.8333,359.333 62.5,359C 28.3333,332.842 16.1667,298.676 26,256.5C 39.3233,217.777 66.1567,195.443 106.5,189.5 Z M 107.5,205.5 C 141.708,204.014 167.208,218.014 184,247.5C 199.245,282.939 193.079,314.106 165.5,341C 132.743,365.276 99.7425,365.61 66.5,342C 37.2569,314.313 31.0903,282.147 48,245.5C 61.5667,222.754 81.4,209.421 107.5,205.5 Z M 45.5,375.5 C 92.1679,375.333 138.835,375.5 185.5,376C 188.333,377.5 190.5,379.667 192,382.5C 192.667,389.5 192.667,396.5 192,403.5C 191.214,406.583 189.381,408.749 186.5,410C 139.167,410.667 91.8333,410.667 44.5,410C 41.6193,408.749 39.786,406.583 39,403.5C 38.3333,396.5 38.3333,389.5 39,382.5C 40.0183,378.985 42.1849,376.652 45.5,375.5 Z M 46.5,426.5 C 92.5012,426.333 138.501,426.5 184.5,427C 188.333,428.167 190.833,430.667 192,434.5C 192.667,441.167 192.667,447.833 192,454.5C 190.73,458.77 187.896,461.27 183.5,462C 138.167,462.667 92.8333,462.667 47.5,462C 44.4522,461.394 41.9522,459.894 40,457.5C 38.4325,449.579 38.0991,441.579 39,433.5C 40.7668,430.228 43.2668,427.895 46.5,426.5 Z"/>
    <!-- Dolar sign -->
    <path d="M 114.5,222.5 C 118.671,222.664 121.505,224.664 123,228.5C 123.499,233.155 123.666,237.821 123.5,242.5C 129.842,242.334 136.175,242.5 142.5,243C 146.753,246.42 147.587,250.587 145,255.5C 143.829,256.893 142.329,257.727 140.5,258C 129.167,258.333 117.833,258.667 106.5,259C 99.4349,262.726 98.7683,267.392 104.5,273C 113.124,274.067 121.791,275.067 130.5,276C 146.193,283.744 150.36,295.578 143,311.5C 138.388,318.392 131.888,322.059 123.5,322.5C 123.666,327.179 123.499,331.845 123,336.5C 118.439,343.955 113.439,344.288 108,337.5C 107.501,332.511 107.334,327.511 107.5,322.5C 101.158,322.666 94.8246,322.5 88.5,322C 85.484,320.471 84.1506,317.971 84.5,314.5C 84.3361,310.823 86.0028,308.323 89.5,307C 101.167,306.667 112.833,306.333 124.5,306C 131.565,302.274 132.232,297.608 126.5,292C 117.876,290.933 109.209,289.933 100.5,289C 85.4096,281.739 80.9096,270.239 87,254.5C 91.7664,247.031 98.5998,243.031 107.5,242.5C 107.334,237.489 107.501,232.489 108,227.5C 109.563,224.977 111.73,223.31 114.5,222.5 Z"/>
  </g>
</svg>
